<?xml version="1.0" encoding="UTF-8" standalone="no"?>
<svg
   id="Layer_1"
   version="1.1"
   viewBox="0 0 1600 900.00002"
   sodipodi:docname="novo_backgound_logo_ipt.svg"
   xml:space="preserve"
   inkscape:version="1.4 (86a8ad7, 2024-10-11)"
   width="1600"
   height="900"
   xmlns:inkscape="http://www.inkscape.org/namespaces/inkscape"
   xmlns:sodipodi="http://sodipodi.sourceforge.net/DTD/sodipodi-0.dtd"
   xmlns="http://www.w3.org/2000/svg"
   xmlns:svg="http://www.w3.org/2000/svg"><sodipodi:namedview
     id="namedview37"
     pagecolor="#ffffff"
     bordercolor="#666666"
     borderopacity="1.0"
     inkscape:showpageshadow="2"
     inkscape:pageopacity="0.0"
     inkscape:pagecheckerboard="0"
     inkscape:deskcolor="#d1d1d1"
     inkscape:zoom="0.63621637"
     inkscape:cx="755.24621"
     inkscape:cy="546.19783"
     inkscape:window-width="1920"
     inkscape:window-height="1009"
     inkscape:window-x="-8"
     inkscape:window-y="-8"
     inkscape:window-maximized="1"
     inkscape:current-layer="Layer_1" /><!-- Generator: Adobe Illustrator 29.3.0, SVG Export Plug-In . SVG Version: 2.1.0 Build 146)  --><defs
     id="defs1"><style
       id="style1">
      .st0 {
        fill: #7bc043;
      }

      .st1 {
        fill: #231f20;
      }
    </style><style
       id="style1-8">
      .st0 {
        fill: #231f20;
      }
    </style><style
       id="style1-86">
      .st0 {
        fill: #fff;
      }
    </style><style
       id="style1-88">
      .st0 {
        fill: #231f20;
      }
    </style></defs><rect
     style="fill:#666666;fill-opacity:0.867987;stroke:#666666;stroke-width:39.4728;stroke-linecap:square;stroke-linejoin:miter;stroke-miterlimit:12.2;stroke-dasharray:none;stroke-opacity:1;paint-order:fill markers stroke"
     id="rect37"
     width="1562.3821"
     height="861.3515"
     x="19.942362"
     y="19.387121"
     rx="0"
     ry="0" /><path
     class="st0"
     d="m 35.221448,57.216652 v 90.776138 c 0,50.13925 40.915799,90.77615 91.399212,90.77615 50.48348,0 91.39925,-40.6369 91.39925,-90.77615 V 57.216652 Z m 90.459772,94.090938 c 0,16.23016 -8.15841,40.14579 -26.403653,56.98981 l -1.211404,1.12949 -1.483365,-0.73662 c -3.560036,-1.74335 -7.021208,-3.83043 -10.235139,-6.18759 l -3.189204,-2.33264 3.535334,-1.74335 c 16.489921,-8.15193 27.812851,-23.44906 30.730091,-41.2998 -17.973277,2.89735 -33.375423,14.14311 -41.583273,30.52058 l -1.755323,3.51126 -2.348644,-3.16747 c -2.373368,-3.19201 -4.450055,-6.60505 -6.230052,-10.16536 l -0.741683,-1.47324 1.137244,-1.20314 c 16.959633,-18.12087 41.039391,-26.2237 57.356261,-26.2237 h 2.42281 v 2.4063 z m 0,-4.2724 h -2.42281 c -16.34159,0 -40.421353,-8.10284 -57.356261,-26.2237 l -1.137244,-1.20311 0.741683,-1.47326 c 1.755281,-3.53575 3.856684,-6.97332 6.230052,-10.16536 l 2.348644,-3.16745 1.755323,3.51123 c 8.20785,16.37752 23.609996,27.62324 41.583273,30.52059 -2.91724,-17.85075 -14.24017,-33.14788 -30.730091,-41.299802 l -3.535334,-1.74335 3.189204,-2.332634 c 3.213931,-2.3326 6.650379,-4.419734 10.235139,-6.187601 l 1.483365,-0.736609 1.211404,1.129484 C 117.52281,104.4831 125.68122,128.39871 125.68122,144.62889 Z m 1.8542,-2.38173 c 0,-16.23019 8.15841,-40.14579 26.40366,-56.965276 l 1.21139,-1.129483 1.48336,0.736617 c 3.56005,1.743292 7.02122,3.830426 10.23514,6.187593 l 3.18923,2.332634 -3.53533,1.74335 c -16.48997,8.151895 -27.81288,23.449055 -30.73012,41.299795 17.97328,-2.89735 33.37543,-14.1431 41.5833,-30.52062 l 1.75532,-3.51123 2.34862,3.16748 c 2.37338,3.19202 4.45008,6.60505 6.23008,10.16536 l 0.74167,1.47323 -1.13722,1.20315 c -16.93494,18.12086 -41.01471,26.22366 -57.3563,26.22366 h -2.4228 z m 60.19933,33.17244 c -1.75527,3.56031 -3.85665,6.97335 -6.23003,10.16536 l -2.34862,3.16747 -1.75532,-3.51126 c -8.20788,-16.37747 -23.61003,-27.62323 -41.5833,-30.52058 2.91724,17.85074 14.24015,33.14787 30.73007,41.2998 l 3.53533,1.74335 -3.18917,2.33264 c -3.18922,2.33262 -6.65038,4.41972 -10.23515,6.18759 l -1.48337,0.73662 -1.2114,-1.12949 c -18.24524,-16.81949 -26.40365,-40.73508 -26.40365,-56.98981 v -2.40629 h 2.4228 c 16.3416,0 40.42137,8.10279 57.38098,26.22365 l 1.13727,1.20315 -0.7417,1.47324 z"
     id="path36-5"
     style="fill:#77c043;fill-opacity:1;stroke-width:2.46381" /><path
     class="st0"
     d="m 59.35065,261.92335 c -13.622106,0 -24.673083,10.97563 -24.673083,24.50487 0,13.52926 11.050977,24.50488 24.673083,24.50488 13.622106,0 24.673092,-10.97562 24.673092,-24.50488 0,-13.52924 -11.050986,-24.50487 -24.673092,-24.50487"
     id="path37-2"
     style="fill:#77c043;fill-opacity:1;stroke-width:2.46381" /><path
     class="st0"
     d="m 1238.8657,437.58725 v 170.87771 c 0,94.38254 77.0203,170.87772 172.0508,170.87772 95.0304,0 172.0506,-76.49518 172.0506,-170.87772 V 437.58725 Z m 170.2823,177.11753 c 0,30.55176 -15.3575,75.57072 -49.7025,107.27803 l -2.2804,2.12618 -2.7922,-1.38661 c -6.7014,-3.2817 -13.2167,-7.21044 -19.2667,-11.64759 l -6.0034,-4.39098 6.655,-3.28169 c 31.0408,-15.34526 52.355,-44.14067 57.8465,-77.74307 -33.8329,5.45403 -62.8262,26.6231 -78.2766,57.4522 l -3.3044,6.60962 -4.421,-5.96249 c -4.4677,-6.00867 -8.3768,-12.43337 -11.7274,-19.13534 l -1.3961,-2.77321 2.1406,-2.26481 c 31.925,-34.11087 77.2529,-49.3637 107.9679,-49.3637 h 4.5607 v 4.52963 z m 0,-8.04241 h -4.5607 c -30.7615,0 -76.0896,-15.25284 -107.9679,-49.36369 l -2.1406,-2.26474 1.3961,-2.7733 c 3.304,-6.65572 7.2597,-13.12661 11.7274,-19.13535 l 4.421,-5.96241 3.3044,6.60955 c 15.4504,30.82918 44.4437,51.99817 78.2766,57.45221 -5.4915,-33.60239 -26.8057,-62.39782 -57.8465,-77.74307 l -6.655,-3.2817 6.0034,-4.39097 c 6.05,-4.3909 12.5186,-8.31973 19.2667,-11.64758 l 2.7922,-1.3866 2.2804,2.12614 c 34.345,31.66114 49.7025,76.68004 49.7025,107.23188 z m 3.4903,-4.48338 c 0,-30.55186 15.3576,-75.57074 49.7025,-107.23189 l 2.2803,-2.12614 2.7922,1.3866 c 6.7016,3.28161 13.217,7.21044 19.2669,11.64759 l 6.0034,4.39097 -6.6549,3.28167 c -31.0409,15.34521 -52.3552,44.14069 -57.8466,77.74307 33.833,-5.45399 62.8261,-26.62307 78.2767,-57.45225 l 3.3041,-6.60955 4.4212,5.96249 c 4.4677,6.00865 8.3768,12.43337 11.7275,19.13534 l 1.3961,2.7732 -2.1408,2.26483 c -31.8783,34.11086 -77.2062,49.36363 -107.9678,49.36363 h -4.5608 z m 113.3198,62.44405 c -3.3041,6.70197 -7.2598,13.12667 -11.7276,19.13534 l -4.421,5.96249 -3.3043,-6.60962 c -15.4505,-30.8291 -44.4436,-51.99817 -78.2766,-57.4522 5.4914,33.6024 26.8058,62.39781 57.8466,77.74307 l 6.6548,3.28169 -6.0033,4.39098 c -6.0034,4.39098 -12.5187,8.31972 -19.2667,11.64759 l -2.7923,1.38661 -2.2804,-2.12618 c -34.345,-31.66113 -49.7025,-76.68001 -49.7025,-107.27803 v -4.52964 h 4.5608 c 30.7615,0 76.0895,15.25277 108.0144,49.36362 l 2.1407,2.26483 -1.3961,2.7732 z"
     id="path36-5-0"
     style="fill:#ffffff;fill-opacity:1;stroke-width:4.6379" /><path
     class="st0"
     d="m 1284.2868,829.6992 c -25.6425,0 -46.4449,20.6606 -46.4449,46.12825 0,25.46752 20.8024,46.12813 46.4449,46.12813 25.6425,0 46.4449,-20.66061 46.4449,-46.12813 0,-25.46765 -20.8024,-46.12825 -46.4449,-46.12825"
     id="path37-2-6"
     style="fill:#ffffff;fill-opacity:1;stroke-width:4.6379" /><g
     id="g1"
     transform="matrix(3.500787,0,0,3.500787,446.41624,63.584885)"
     inkscape:transform-center-x="4.4457001"><path
       class="st0"
       d="m 61.31,60.51 v 36.97 c 0,20.42 16.55,36.97 36.97,36.97 20.42,0 36.97,-16.55 36.97,-36.97 V 60.51 Z M 97.9,98.83 c 0,6.61 -3.3,16.35 -10.68,23.21 l -0.49,0.46 -0.6,-0.3 c -1.44,-0.71 -2.84,-1.56 -4.14,-2.52 l -1.29,-0.95 1.43,-0.71 c 6.67,-3.32 11.25,-9.55 12.43,-16.82 -7.27,1.18 -13.5,5.76 -16.82,12.43 l -0.71,1.43 -0.95,-1.29 c -0.96,-1.3 -1.8,-2.69 -2.52,-4.14 l -0.3,-0.6 0.46,-0.49 c 6.86,-7.38 16.6,-10.68 23.2,-10.68 h 0.98 v 0.98 z m 0,-1.74 h -0.98 c -6.61,0 -16.35,-3.3 -23.2,-10.68 l -0.46,-0.49 0.3,-0.6 c 0.71,-1.44 1.56,-2.84 2.52,-4.14 l 0.95,-1.29 0.71,1.43 c 3.32,6.67 9.55,11.25 16.82,12.43 C 93.38,86.48 88.8,80.25 82.13,76.93 l -1.43,-0.71 1.29,-0.95 c 1.3,-0.95 2.69,-1.8 4.14,-2.52 l 0.6,-0.3 0.49,0.46 C 94.6,79.76 97.9,89.5 97.9,96.11 Z m 0.75,-0.97 c 0,-6.61 3.3,-16.35 10.68,-23.2 l 0.49,-0.46 0.6,0.3 c 1.44,0.71 2.84,1.56 4.14,2.52 l 1.29,0.95 -1.43,0.71 c -6.67,3.32 -11.25,9.55 -12.43,16.82 7.27,-1.18 13.5,-5.76 16.82,-12.43 l 0.71,-1.43 0.95,1.29 c 0.96,1.3 1.8,2.69 2.52,4.14 l 0.3,0.6 -0.46,0.49 C 115.98,93.8 106.24,97.1 99.63,97.1 H 98.65 Z M 123,109.63 c -0.71,1.45 -1.56,2.84 -2.52,4.14 l -0.95,1.29 -0.71,-1.43 c -3.32,-6.67 -9.55,-11.25 -16.82,-12.43 1.18,7.27 5.76,13.5 12.43,16.82 l 1.43,0.71 -1.29,0.95 c -1.29,0.95 -2.69,1.8 -4.14,2.52 l -0.6,0.3 -0.49,-0.46 C 101.96,115.19 98.66,105.45 98.66,98.83 v -0.98 h 0.98 c 6.61,0 16.35,3.3 23.21,10.68 l 0.46,0.49 -0.3,0.6 z"
       id="path36" /><path
       class="st0"
       d="m 71.07,143.88 c -5.51,0 -9.98,4.47 -9.98,9.98 0,5.51 4.47,9.98 9.98,9.98 5.51,0 9.98,-4.47 9.98,-9.98 0,-5.51 -4.47,-9.98 -9.98,-9.98"
       id="path37" /></g></svg>
